<?xml version="1.0" standalone="no"?><!DOCTYPE svg PUBLIC "-//W3C//DTD SVG 1.1//EN" "http://www.w3.org/Graphics/SVG/1.1/DTD/svg11.dtd"><svg t="1588318592861" class="icon" viewBox="0 0 1024 1024" version="1.1" xmlns="http://www.w3.org/2000/svg" p-id="1191" xmlns:xlink="http://www.w3.org/1999/xlink" width="200" height="200"><defs><style type="text/css"></style></defs><path d="M1022.95228 467.211321c-1.535196-8.699444-7.164248-16.887156-14.840228-22.004476l-111.045846-76.248069c-7.164248-5.629052-16.375424-7.164248-25.074868-5.629052-8.699444 1.535196-16.887156 7.164248-22.004476 14.840228l-23.539672 34.797777-5.11732 7.164248-11.258105 16.375424L977.408131 552.670566l39.915097-59.360912c5.629052-8.187712 7.164248-16.887156 5.629052-26.098333zM872.50307 555.740958L680.603568 840.775686l-22.004476-16.375424 191.38777-282.9878-74.712873-53.73186-207.763194 308.574399c-1.023464 1.023464-1.535196 2.55866-1.535196 4.093856l-36.332973 211.857051c-1.023464 4.093856 1.023464 8.187712 4.093856 9.722908 3.070392 2.55866 7.164248 2.55866 10.746372 1.023464l182.688326-102.858133c1.535196-1.023464 2.55866-1.535196 3.070392-3.070392l211.857051-313.179988-69.595553-48.102809z m-271.729695 408.873873l-34.797776-27.633528L588.491807 813.653889l124.862609 87.506173-112.581041 63.454769z" p-id="1192" fill="#ffffff"></path><path d="M860.733234 115.139701c0-63.454769-51.173201-115.139701-113.604505-115.139701H114.627969C51.173201 0 0 51.684933 0 115.139701v747.128729C0 925.723199 51.173201 977.408131 114.627969 977.408131l379.193417-2.55866 31.215652-198.040286 335.696196-498.426974V115.139701zM424.737565 575.186775c0 5.629052-4.605588 10.23464-10.23464 10.23464H189.340842c-5.629052 0-10.23464-4.605588-10.23464-10.23464v-8.187712c0-5.629052 4.605588-10.23464 10.23464-10.234641h225.162083c5.629052 0 10.23464 4.605588 10.23464 10.234641v8.187712z m113.092773-170.406758c0 5.629052-4.605588 10.23464-10.23464 10.23464h-337.743124c-5.629052 0-10.23464-4.605588-10.23464-10.23464v-8.187712c0-5.629052 4.605588-10.23464 10.23464-10.234641h338.254856c5.629052 0 10.23464 4.605588 10.23464 10.234641v8.187712z m143.796694-170.91849c0 5.629052-4.605588 10.23464-10.23464 10.23464H189.852574c-5.629052 0-10.23464-4.605588-10.23464-10.23464v-8.187712c0-5.629052 4.605588-10.23464 10.23464-10.23464h481.539818c5.629052 0 10.23464 4.605588 10.23464 10.23464v8.187712z" p-id="1193" fill="#ffffff"></path></svg>