<?xml version="1.0" standalone="no"?><!DOCTYPE svg PUBLIC "-//W3C//DTD SVG 1.1//EN" "http://www.w3.org/Graphics/SVG/1.1/DTD/svg11.dtd"><svg t="1589125718134" class="icon" viewBox="0 0 1204 1024" version="1.1" xmlns="http://www.w3.org/2000/svg" p-id="12905" xmlns:xlink="http://www.w3.org/1999/xlink" width="235.15625" height="200"><defs><style type="text/css"></style></defs><path d="M604.643104 173.280497c48.474671-84.227482 113.619364-137.527686 202.891722-162.094035 190.169862-52.203491 380.559066 85.543536 395.474349 281.635644 12.173503 160.448966-76.76984 264.965621-187.647424 355.992717-98.704081 81.376031-205.194816 153.539681-308.395416 229.212809a260.469101 260.469101 0 0 0-102.542573 145.972368c-32.243333-110.767913-123.051087-162.532719-203.988433-224.167934-94.207561-71.724965-192.363286-139.611438-278.893863-219.342401C-10.831673 457.767591-35.836707 294.686516 50.255185 150.468887 166.506658-43.86848 453.51619-48.584342 581.283139 138.295384c6.909286 9.651066 13.379886 19.850487 23.359965 34.985113z m4.715862 693.34133c39.26229-32.243333 82.2534-70.189568 128.205634-104.406983s95.304273-62.841598 141.58552-96.071972c83.350112-59.990147 165.932527-121.735033 219.342401-212.323444 76.76984-130.179715 36.959195-274.178001-97.497698-354.676663-98.704081-59.003106-257.178965-22.701939-325.942808 97.607369-40.797687 71.28628-101.336189 68.873514-143.44993-2.851451a246.211845 246.211845 0 0 0-304.885938-102.32323A238.644533 238.644533 0 0 0 82.059834 377.378601c25.772732 102.652244 96.291314 172.512799 176.680304 232.94163 114.716076 86.420906 232.06426 169.88069 350.618828 256.191925z" fill="#7647A3" p-id="12906"></path><path d="M608.152583 807.399379c-95.304273-68.325158-189.950519-132.811824-280.648603-202.343365-73.04102-56.041984-146.959409-111.974296-189.511834-199.053229-40.907358-83.788797-8.993038-218.465032 85.87255-264.85595 100.678162-49.242369 219.342401-16.45068 271.107208 80.718004 24.785691 46.829603 58.016065 74.357074 112.083967 73.150691 50.668095-1.206383 81.924387-28.404841 104.955339-72.16365 52.751847-100.239477 166.26154-131.605441 274.178001-77.537539 90.917425 45.294206 127.657277 161.326336 82.14373 261.127128-32.90136 73.150691-91.575453 125.244511-153.539681 172.403128-80.169648 60.867516-162.752062 118.444897-244.018422 177.996358-21.714898 16.011995-42.223412 34.107743-62.622255 50.558424z" fill="#7647A3" p-id="12907"></path></svg>