<?xml version="1.0" standalone="no"?><!DOCTYPE svg PUBLIC "-//W3C//DTD SVG 1.1//EN" "http://www.w3.org/Graphics/SVG/1.1/DTD/svg11.dtd"><svg t="1589126138023" class="icon" viewBox="0 0 1215 1024" version="1.1" xmlns="http://www.w3.org/2000/svg" p-id="13717" xmlns:xlink="http://www.w3.org/1999/xlink" width="237.3046875" height="200"><defs><style type="text/css"></style></defs><path d="M1111.928484 105.459147l-3.711548-3.519571c-137.775209-130.416106-357.396442-135.023544-500.866957-10.558713-143.534507-124.400839-363.15574-119.729408-500.866957 10.558713C-34.107843 235.299323-35.707648 452.936798 103.027444 588.216311l3.455578 3.19961 419.53287 399.695287a117.16972 117.16972 0 0 0 161.132362 1.407829l1.47182-1.407829 419.596862-399.311334c140.654858-133.295755 142.446639-351.061214 3.711548-486.340727zM974.60122 389.456535a18.557738 18.557738 0 0 1-18.941691-18.173785c0-65.528014-55.289262-118.641541-123.376963-118.641541a19.581613 19.581613 0 0 1-13.438363-5.375345 17.789832 17.789832 0 0 1-0.063992-25.788857 19.19766 19.19766 0 0 1 13.37437-5.375344c89.077144 0 161.388331 69.49553 161.388331 155.181087a18.557738 18.557738 0 0 1-18.941692 18.173785z" p-id="13718" fill="#7647A3"></path></svg>